<?xml version="1.0" encoding="utf-8"?>
<!-- Generator: Adobe Illustrator 17.0.0, SVG Export Plug-In . SVG Version: 6.00 Build 0)  -->
<!DOCTYPE svg PUBLIC "-//W3C//DTD SVG 1.1//EN" "http://www.w3.org/Graphics/SVG/1.1/DTD/svg11.dtd">
<svg version="1.1" xmlns="http://www.w3.org/2000/svg" xmlns:xlink="http://www.w3.org/1999/xlink" x="0px" y="0px" width="1024px"
	 height="600px" viewBox="0 0 1024 600" enable-background="new 0 0 1024 600" xml:space="preserve">
<style>
	path.itemdesc{
    cursor: pointer;
}
</style>
<g id="Layer_2">
	<path fill="none" stroke="#CC33FF" stroke-width="16" stroke-miterlimit="10" d="M152,439c0,0,52.606-179.151,252-114
		c204.763,66.905,286.175,61.592,446.576-206.497"/>
</g>
<g id="Layer_1">
	<circle class="itemdesc" id="itemdesc_od" data-ignore="true" stroke="#FFFFFF" stroke-width="0.4598" stroke-miterlimit="10" cx="534.124" cy="355.355" r="34.486"/>
	<circle class="itemdesc" id="itemdesc_cp" data-ignore="true" stroke="#FFFFFF" stroke-width="0.4598" stroke-miterlimit="10" cx="151.764" cy="438.11" r="34.486"/>
	<circle class="itemdesc" id="itemdesc_sd" data-ignore="true" stroke="#FFFFFF" stroke-width="0.4598" stroke-miterlimit="10" cx="840.576" cy="135.503" r="34.486"/>
	<circle class="itemdesc" id="itemdesc_ae" data-ignore="true" stroke="#FFFFFF" stroke-width="0.4598" stroke-miterlimit="10" cx="318.612" cy="313.724" r="34.486"/>
	<rect data-ignore="true" x="73.112" y="497" fill="none" width="189.512" height="37.978"/>
	<text data-ignore="true" transform="matrix(1 0 0 1 73.112 511.5998)" font-family="'Raleway'" font-size="20">Content Production</text>
	<rect data-ignore="true" x="213.391" y="243.859" fill="none" width="226.223" height="31.979"/>
	<text data-ignore="true" transform="matrix(1 0 0 1 213.3911 258.4594)" font-family="'Raleway'" font-size="20">Automated Editing</text>
	<polygon fill="none" points="613.346,437.853 434.385,437.853 432.802,404.615 611.763,404.615 	"/>
	<text data-ignore="true" transform="matrix(1 0 0 1 433.4971 419.2136)" font-family="'Raleway'" font-size="20">Outsourced Design</text>
	<circle class="itemdesc" id="itemdesc_sp"  stroke="#FFFFFF" stroke-width="0.4598" stroke-miterlimit="10" cx="736.124" cy="278.355" r="34.486"/>
	<rect data-ignore="true" x="541.283" y="209.361" fill="none" width="222.337" height="31.403"/>
	<text data-ignore="true" transform="matrix(1 0 0 1 541.2823 223.9611)" font-family="'Raleway'" font-size="20">Ad-Sponsored Printing</text>
	<rect data-ignore="true" x="728.652" y="65.602" fill="none" width="243.848" height="25.415"/>
	<text data-ignore="true" transform="matrix(1 0 0 1 728.652 80.2008)" font-family="'Raleway'" font-size="20">Smart Sales &amp; Distribution</text>
</g>
</svg>
