<?xml version="1.0" encoding="utf-8"?>
<!-- Generator: Adobe Illustrator 17.0.0, SVG Export Plug-In . SVG Version: 6.00 Build 0)  -->
<!DOCTYPE svg PUBLIC "-//W3C//DTD SVG 1.1//EN" "http://www.w3.org/Graphics/SVG/1.1/DTD/svg11.dtd">
<svg version="1.1" xmlns="http://www.w3.org/2000/svg" xmlns:xlink="http://www.w3.org/1999/xlink" x="0px" y="0px" width="1024px"
	 height="600px" viewBox="0 0 1024 600" enable-background="new 0 0 1024 600" xml:space="preserve">
<g id="Layer_1">
	<g id="Layer_1_1_">
		<rect x="478.878" y="475.49" fill="none" width="451.697" height="89.996"/>
		<text transform="matrix(1 0 0 1 478.8784 493.0088)" font-family="'Raleway-Regular'" font-size="24">Geert Lovink </text>
		<text transform="matrix(1 0 0 1 478.8784 514.6098)" font-family="'Raleway-Regular'" font-size="18">media theorist, co-founder </text>
		<text transform="matrix(1 0 0 1 478.8784 536.2088)" font-family="'Raleway-Regular'" font-size="18">Institute of Network Cultures </text>
		<rect x="825.401" y="276.935" fill="none" width="451.697" height="89.996"/>
		<text transform="matrix(1 0 0 1 825.4011 294.4541)" font-family="'Raleway-Regular'" font-size="24">Inte Gloerich</text>
		<text transform="matrix(1 0 0 1 825.4011 316.0551)" font-family="'Raleway-Regular'" font-size="18">project coordinator</text>
		<text transform="matrix(1 0 0 1 825.4011 337.6541)" font-family="'Raleway-Regular'" font-size="18">MoneyLab #3</text>
		<rect x="70.125" y="226.124" fill="none" width="451.697" height="66.876"/>
		<text transform="matrix(1 0 0 1 70.1248 243.6435)" font-family="'Raleway-Regular'" font-size="24">Miriam Rasch</text>
		<text transform="matrix(1 0 0 1 70.1248 265.2445)" font-family="'Raleway-Regular'" font-size="18">publishing executive</text>
		<text transform="matrix(1 0 0 1 70.1248 286.8435)" font-family="'Raleway-Regular'" font-size="18">Institute of Network Cultures</text>
	</g>
	<g>
		
			<image overflow="visible" opacity="0.75" enable-background="new    " width="226" height="225" xlink:href="3EF4A6095A3EC57D.png"  transform="matrix(1 0 0 1 434 240)">
		</image>
		<g>
			
				<image class="svgimage"  overflow="visible" enable-background="new    " width="438" height="438" xlink:href="3EF4A6095A3EC57F.png"  transform="matrix(0.4563 0 0 0.46 441.9781 247.5091)">
			</image>
		</g>
	</g>
	<g>
		
			<image overflow="visible" opacity="0.75" enable-background="new    " width="231" height="229" xlink:href="3EF4A6095A3EC57A.png"  transform="matrix(1 0 0 1 39 314)">
		</image>
		<g>
			
				<image class="svgimage"  overflow="visible" enable-background="new    " width="438" height="438" xlink:href="3EF4A6095A3EC57B.png"  transform="matrix(0.467 0 0 0.467 47.1251 321.9331)">
			</image>
		</g>
	</g>
</g>
<g id="Layer_2">
	<g>
		
			<image overflow="visible" opacity="0.75" width="243" height="241" xlink:href="3EF4A6095A3EC585.png"  transform="matrix(1 0 0 1 732.5 37.5)">
		</image>
		<g>
			
				<image class="svgimage" overflow="visible" width="1342" height="1342" xlink:href="Inte.png"  transform="matrix(0.1576 0 0 0.1576 743.6602 48.0975)">
			</image>
		</g>
	</g>
</g>
</svg>
